<?xml version="1.0" encoding="UTF-8"?>
<svg id="Layer_1" data-name="Layer 1" xmlns="http://www.w3.org/2000/svg" xmlns:xlink="http://www.w3.org/1999/xlink" viewBox="0 0 1152.09 910.27">
  <defs>
    <style>
      .cls-1 {
        fill: url(#linear-gradient-2);
      }

      .cls-2 {
        fill: url(#linear-gradient-4);
      }

      .cls-3 {
        fill: url(#linear-gradient-3);
      }

      .cls-4 {
        fill: url(#linear-gradient-5);
      }

      .cls-5 {
        fill: url(#linear-gradient-7);
      }

      .cls-6 {
        fill: url(#linear-gradient-6);
      }

      .cls-7 {
        fill: url(#linear-gradient);
      }
    </style>
    <linearGradient id="linear-gradient" x1="23.21" y1="596.93" x2="903.99" y2="177.51" gradientUnits="userSpaceOnUse">
      <stop offset="0" stop-color="#5998bc"/>
      <stop offset=".47" stop-color="#63ada6"/>
      <stop offset="1" stop-color="#59b493"/>
    </linearGradient>
    <linearGradient id="linear-gradient-2" x1="721.89" y1="852.09" x2="461.85" y2="589.95" gradientUnits="userSpaceOnUse">
      <stop offset="0" stop-color="#7bc28b"/>
      <stop offset=".46" stop-color="#7bc596"/>
      <stop offset="1" stop-color="#64a1ab"/>
    </linearGradient>
    <linearGradient id="linear-gradient-3" x1="837.19" y1="737.71" x2="577.15" y2="475.57" xlink:href="#linear-gradient-2"/>
    <linearGradient id="linear-gradient-4" x1="712.75" y1="29.81" x2="745.25" y2="237.42" gradientUnits="userSpaceOnUse">
      <stop offset=".26" stop-color="#5694d6"/>
      <stop offset=".67" stop-color="#5694d4"/>
      <stop offset=".82" stop-color="#5898cd"/>
      <stop offset=".93" stop-color="#5b9dc1"/>
      <stop offset="1" stop-color="#5fa4b4"/>
    </linearGradient>
    <linearGradient id="linear-gradient-5" x1="330.64" y1="89.63" x2="363.14" y2="297.25" xlink:href="#linear-gradient-4"/>
    <linearGradient id="linear-gradient-6" x1="473.28" y1="67.3" x2="505.78" y2="274.91" xlink:href="#linear-gradient-4"/>
    <linearGradient id="linear-gradient-7" x1="994.86" y1="97.87" x2="1043.79" y2="160.44" gradientUnits="userSpaceOnUse">
      <stop offset=".33" stop-color="#5f94d2"/>
      <stop offset=".75" stop-color="#66afb4"/>
      <stop offset="1" stop-color="#69baa9"/>
    </linearGradient>
  </defs>
  <path class="cls-7" d="M360.56,567.79c44.74-15.55,119.53-52.25,156.93-72,37.92-18.52,143.3-84.41,154.02-91.05,10.72-6.64,70.95-46.6,85.28-57.55,14.33-10.95,51.38-37.63,61.51-45.55s59.77-47.3,74.91-61.05c11.93-10.83,30.27-27.92,37.51-34.68,1.69-1.58,1.74-4.25.1-5.89l-2.66-2.66c-1.46-1.46-3.78-1.61-5.41-.34-12.7,9.89-63.91,49.76-73.69,57.2-11.18,8.5-71.77,53.01-79.34,57.9s-64.54,43.22-77.59,51.26c-13.05,8.04-63.61,38.21-83.3,50.1-19.69,11.88-46.37,26.45-62.91,35.53-16.54,9.09-67.46,33.09-85.75,42.76s-65.24,29.94-82.25,36.7-80.62,29.13-94.37,33.32c-13.75,4.19-57.73,17.36-110.39,22.78-52.66,5.42-83.48-8.04-95.88-24.99-12.41-16.95-3.67-42.12,5.77-64.31,9.44-22.19,31.46-45.61,49.28-64.66,17.83-19.05,40.66-40.78,40.66-40.78-51.84,31.92-102.46,87.53-119.65,125.53-14.68,32.45-6.52,77.07,32.39,92.1,40.57,15.67,107.59,9.09,146.21,1.05s83.88-25.17,128.62-40.72Z"/>
  <g>
    <path class="cls-1" d="M388.08,609.73c-.96,7.69,1.66,15.73,5.42,21.5,3.76,5.77,15.03,13.02,24.47,17.91,9.44,4.89,24.29,15.03,27.26,20.18,2.97,5.16,8.74,29.53,11.71,45.96s15.55,40.63,23.24,54.79c7.69,14.16,15.82,17.3,25.86,16.17,10.05-1.14,16.78-11.88,18.26-15.82,1.49-3.93,9.79-28.31,11.97-36.52,2.18-8.21,10.05-35.27,12.09-43.43,2.04-8.16,3.79-9.32,13.46-9.26,9.67.06,17.65-4.43,24.87-12.12,7.22-7.69,27.47-35.13,30.17-40.66,2.74-5.59,10.49-29.71,3.03-41.83-7.46-12.12-17.74-17.33-24.73-18.38-6.99-1.05-25.51-2.8-33.9-4.37-8.39-1.57-10.57-8.3-11.18-15.55s-.61-10.81-6.09-18.15c-3.9-5.23-14.02-11.74-19.51-15.05-2.18-1.31-4.94-1.14-6.93.44l-7.76,6.16c-1.2.96-1.04,2.81.29,3.58,11.18,6.41,20.26,16.15,21.39,21.79,1.22,6.12,3.06,14.94,5.42,20.88,2.36,5.94,10.4,11.88,21.84,14.68,11.45,2.8,17.83,2.27,31.46,3.76,13.63,1.49,15.47,10.57,15.12,18.52-.35,7.95-9.26,19.57-12.15,24.64-2.88,5.07-20.8,26.04-26.21,30.93-5.42,4.89-15.12,2.45-24.29,6.2-9.17,3.76-14.85,23.77-17.74,33.99-2.88,10.22-9.96,33.55-11.53,41.5-1.57,7.95-6.2,23.07-9.7,24.9-3.5,1.83-9.09-8.39-12.23-13.81s-9.96-23.07-11.8-28.66c-1.83-5.59-9.79-25.69-12.67-46.31-2.88-20.62-9.09-24.9-16.08-31.46-6.99-6.55-22.89-13.89-33.2-19.31s-11.97-14.24-12.76-23.94c-.79-9.7-3.84-13.89-5.94-20.01-2.1-6.12-8.3-7.34-12.23-5.5-3.93,1.83-4.02,8.83-2.45,11.8,1.57,2.97,4.72,12.15,3.76,19.83Z"/>
    <path class="cls-3" d="M941.1,354.93c-16.08-53.65-42.99-96.29-42.99-96.29l-15.2,11.71s26.04,49.34,44.21,114.58c3.43,12.31,5.89,26.69,7.27,42.45-2.31,3.56-5.86,8.33-8.67,9.16-4.59,1.35-12.93-3.58-16.65-4.37-3.71-.79-14.55-.92-16.51,8.74-1.97,9.66-7.56,66.41-8.78,72.7-1.22,6.29-10.66,42.47-19.57,52.43-8.91,9.96-13.98,15.2-19.66,10.22-5.68-4.98-1.75-36.7-1.49-44.65.26-7.95-1.57-31.54-14.33-43.51-11.79-11.07-24.29-16.78-46.22-11.27-21.93,5.5-33.99,14.59-51.12,11.27-17.13-3.32-25.08-9.79-28.54-21.96-3.12-10.95-3.73-20.27,3.73-31.22,7.46-10.95,19.34-21.73,22.72-28.34,3.38-6.61,5.16-14.11,1.79-18.52-3.36-4.41-10.05-3.19-13.5,2.58-3.45,5.77-11.01,15.16-17.21,21.54-6.2,6.38-15.29,21.93-16.25,31.54-.93,9.3-5.24,29.97,9.35,44.39,14.58,14.4,25.17,22.37,55.92,18.17,30.76-4.19,50.85-21.67,66.67-3.76,15.82,17.91,4.22,48.44,7.83,71.62,3.61,23.18,26.21,31.69,42.17,16.43,15.96-15.26,32.21-45.15,36.76-74.85,4.54-29.71,4.72-66.23,4.72-66.23,0,0,13.96,11.29,28.15,5.46.6,64.01-14.59,142.31-50.87,200.05-1.7,2.7-3.43,5.36-5.18,7.98-45.41,33.34-108.41,50.46-157.87,59.69,12.97-45.17,18.2-91.87,19.51-108.92,1.45-18.82,1.77-59.98,1.84-77.43.02-4.46-3.59-8.08-8.05-8.08s-8.08,3.63-8.05,8.1c.05,7.62.08,18.94-.06,26.38-.23,12.12-3.96,72.23-6.76,94.83-1.82,14.71-5.62,40.09-13.96,67.84-14.28,2.36-26.95,4.05-37.07,5.32-38.72,4.86-95.46,6.12-116.33,6.43-4.49.07-8.09,3.73-8.09,8.22s3.53,8.08,7.97,8.22c17.48.54,58.89,1.55,74.52-.26,13.45-1.56,39.27-3.74,72.97-9.78-3.34,9.12-7.21,18.29-11.69,27.25-14.74,29.49-38.2,45.53-51.4,52.67-33.57,5.54-68,7.08-92.89,4.71-44.04-4.19-97.69-18.52-135.61-39.5-37.92-20.97-67.63-39.32-102.41-77.24-5.35-5.83-10.4-11.84-15.12-17.84,10.74,4.94,25.87,11.75,44.48,19.76,38.97,16.78,81.87,24.2,94.54,27.52s22.81,3.5,22.63-4.28c-.17-7.78-3.67-9.35-13.63-10.83-9.96-1.49-33.29-6.29-58.72-13.46s-42.64-13.11-76.72-27.52c-16.1-6.81-25.55-12.55-31.04-16.71-14.89-22.39-23.52-39.94-23.52-39.94l-20.56,5.24c3.5,9.38,18.17,38.16,44.27,72.64,26.1,34.49,79.92,82.25,133.98,107.42,54.06,25.17,111.61,42.41,196.19,36.12s127.46-30.76,171.73-54.76c44.27-24,102.06-79.92,131.18-133.51,29.13-53.59,45.44-98.33,50.33-152.62,4.89-54.29.93-100.08-15.15-153.73ZM708.33,803.53c-11,4.96-23.59,9.18-36.97,12.7,8.89-7.54,19.2-19.77,29.63-39.61,5.82-11.07,10.86-23.36,15.22-36.13,12.11-2.45,25.03-5.4,38.61-8.96,40.08-10.53,83.2-29.57,102.07-38.34-49.05,58.29-110.17,93.03-148.55,110.34Z"/>
  </g>
  <g>
    <path class="cls-2" d="M702.62,236.62l-10.98,16.25,15.9,51.29,9-7.86-8.62-44.24c54.87-5.59,91.75-24.99,91.75-24.99l-97.05,9.55Z"/>
    <path class="cls-4" d="M362.07,468.12c-6.71,6.99-12.4,17.73-13.38,25.96-.49,4.1,2.43,8.29,6.81,8.29,2.82,0,5.32-1.72,6.42-4.31,15.33-35.97,61.19-18.88,61.19-18.88l12.67-8.8c-23.86-23.7-62.54-13.92-73.72-2.26Z"/>
    <path class="cls-6" d="M712.75,114.64c-58.72-21.2-96.47-28.89-128.62-29.13-32.16-.23-94.83.7-161.48,28.43-66.64,27.73-131.3,87.55-149.83,113.24-20.38,28.26-51.5,76.66-67.81,132.58-16.31,55.92-20.27,140.39-6.47,184.25l19.83-4.19s-8.68-47.48-5.85-97.5c4.8,5.35,14.47,16.01,22.1,23.58,10.57,10.49,26.56,21.32,34.6,27.09s14.56,9.45,18.45,9.98c3.89.52,9.37-1.41,10.07-5.38.63-3.55.76-7.49-6.41-11.85-7.17-4.37-24.76-16.98-32.04-23.16-5.54-4.7-28.49-25.4-43.62-49.66.3-1.81.61-3.61.96-5.39,11.45-60.12,22.63-90.9,55.83-141.92,10-15.37,22.93-30.97,37.36-45.81,26.84,12.4,77.82,24.19,118.64,31.38,13.03,2.29,24.88,3.96,36.87,5.23-1.5,12.87-4.9,41.17-8.56,49.41-4.19,9.44-18.76,3.5-29.71,3.5s-42.17,32.74-44.27,43.81c-2.1,11.07,12.47,34.6,10.49,46.49-1.98,11.88-15.15,12.23-33.2-1.05-18.06-13.28-36.58-13.51-53.36-8.39-16.78,5.13-24.58,19.46-27.03,37.75s12.58,40.89,16.85,46.72,14.38,13.4,21.02,24.12c6.64,10.72,13.17,10.25,15.73,9.09,2.56-1.17,5.94-12.7,2.45-17.13-3.5-4.43-23.3-24.23-33.9-43.34-10.6-19.11-2.21-29.83,7.11-37.75,9.32-7.92,22.95-4.66,34.02.35,11.07,5.01,29.13,21.9,49.17,16.54,20.04-5.36,20.04-26.21,19.92-37.4-.08-8.08-6.31-21.14-9.76-27.77-1.28-2.47-.73-5.49,1.36-7.32l27.47-24.18c1.62-1.43,3.91-1.94,5.93-1.18,7.69,2.88,22.05.85,34.19-11.07,13.86-13.63,6.17-25.17,9.9-47.07.59-3.49,1.33-7.69,2.29-12.48,24.35,1.82,51.7,2.54,91.85,3.86,70.83,2.33,102.52-7.22,113.8-13.51,11.27-6.29,14.59-22.37-9.17-69.67-13-25.88-28.86-51.33-49.26-67.18,6.36,1.17,12.8,2.55,19.32,4.15,103.81,25.51,183.15,98.91,183.15,98.91.23-.12,12.7-9.2,12.7-9.2,0,0-74.33-69.55-133.05-90.76ZM469.1,240.51c-28.46-3.31-54.63-7.93-84.07-13.09-36.18-6.35-55.66-14.49-63.97-18.72,31.23-29.76,67.4-55.2,96.12-67.49,29.2-12.5,73.8-29.88,129.31-34.11-38.4,24.84-59.49,82.6-62.43,92.72-2.54,8.72-10.43,27.65-14.96,40.7ZM687.12,240.7c-21.09,2.45-88.54,6.29-149.13,4.66-18.56-.5-35.31-1.54-51.08-2.99,6.22-25.16,17.78-59.39,40.6-94.17,18.31-27.91,36.96-38.3,50.06-42,7.76.14,15.68.57,23.77,1.31,58.94,31.1,85.78,133.19,85.78,133.19Z"/>
  </g>
  <path class="cls-5" d="M914.51,149.33l-5.68,7.92s30.35,20.74,33.93,26.5,17.3,42.55,17.3,42.55h10.75l2.01-48.23,49.72-31.46,29.27,76.63,14.77-11.62-8.56-89.39s35.24-28.22,41.68-37.14,6.64-14.68,5.16-18.79-7.51-10.22-21.15-4.72c-13.63,5.5-47.53,29.62-47.53,29.62l-85.37-30.32-14.68,11.27,64.05,45.17-44.3,39.06-41.36-7.08Z"/>
</svg>